<?xml version="1.0" encoding="utf-8"?>
<!-- Generator: Adobe Illustrator 28.1.0, SVG Export Plug-In . SVG Version: 6.00 Build 0)  -->
<svg version="1.0" id="katman_1" xmlns="http://www.w3.org/2000/svg" xmlns:xlink="http://www.w3.org/1999/xlink" x="0px" y="0px"
	 viewBox="0 0 841.9 595.3" style="enable-background:new 0 0 841.9 595.3;" xml:space="preserve">
<style type="text/css">
	.st0{fill:#17A746;}
	.st1{fill-rule:evenodd;clip-rule:evenodd;fill:#219653;}
	.st2{fill-rule:evenodd;clip-rule:evenodd;fill:#24292E;}
	.st3{fill-rule:evenodd;clip-rule:evenodd;fill:#FFFFFF;}
</style>
<g id="Logo_Colour_x3D_Primary_x2C__Logo_Type_x3D_LogoMark_x2C__Shape_x3D_Squircle">
	<g id="bg">
		<path id="mask" class="st0" d="M421.4,34.9C217.3,34.9,159,93.2,159,297.3c0,204.1,58.5,262.4,262.4,262.4s262.4-58.3,262.4-262.4
			C683.9,93.2,625.4,34.9,421.4,34.9z"/>
		<path id="mask__x28_Stroke_x29_" class="st1" d="M226.9,102.8c-34.3,34.3-49.2,92.8-49.2,194.5c0,101.7,14.9,160.2,49.2,194.5
			c34.3,34.3,92.9,49.2,194.4,49.2s160.1-14.9,194.4-49.2c34.3-34.3,49.2-92.8,49.2-194.5s-14.9-160.2-49.2-194.5
			C581.6,68.5,523,53.6,421.4,53.6C319.8,53.6,261.2,68.5,226.9,102.8z M159,297.3c0-204.1,58.3-262.4,262.4-262.4
			c204,0,262.4,58.3,262.4,262.4c0,204.1-58.5,262.4-262.4,262.4S159,501.4,159,297.3z"/>
	</g>
	<g id="logo">
		<path id="shadow" class="st2" d="M412.8,156.7H299.6v318.7h88v-66.6h25.2c71.7,0,130.5-56.1,130.5-126S484.5,156.7,412.8,156.7z
			 M387.6,323.3v-81.2h25.2c23.8,0,42.5,18.5,42.5,40.6c0,22.1-18.7,40.6-42.5,40.6H387.6z"/>
		<path id="solid" class="st3" d="M327.7,147.3h103.8c66.9,0,121.1,52.2,121.1,116.6c0,64.4-54.2,116.6-121.1,116.6h-34.6v66.6
			h-69.2V147.3z M396.9,313.9h34.6c28.7,0,51.9-22.4,51.9-50c0-27.6-23.2-50-51.9-50h-34.6V313.9z"/>
		<path id="outline" class="st2" d="M318.3,138h113.2C503.3,138,562,194,562,264s-58.8,126-130.5,126h-25.2v66.6h-88V138z
			 M337.1,156.7v281.2h50.5v-66.6h44c62.1,0,111.7-48.4,111.7-107.3c0-58.9-49.7-107.3-111.7-107.3H337.1z M387.6,204.6h44
			c33.5,0,61.3,26.2,61.3,59.4c0,33.1-27.8,59.4-61.3,59.4h-44V204.6z M406.3,223.3v81.2h25.2c23.8,0,42.5-18.5,42.5-40.6
			s-18.7-40.6-42.5-40.6H406.3z"/>
	</g>
</g>
</svg>
